<?xml version="1.0" encoding="UTF-8" standalone="no"?>
<!DOCTYPE svg PUBLIC "-//W3C//DTD SVG 1.1//EN" "http://www.w3.org/Graphics/SVG/1.1/DTD/svg11.dtd">
<svg width="100%" height="100%" viewBox="0 0 142 342" version="1.1" xmlns="http://www.w3.org/2000/svg"
     xml:space="preserve"
     style="fill-rule:evenodd;clip-rule:evenodd;">
    <g transform="matrix(1,0,0,1,10.6155,10.6155)">
        <path
          d="M110,20C110,14.481 105.519,10 100,10L20,10C14.481,10 10,14.481 10,20L10,300C10,305.519 14.481,310 20,310L100,310C105.519,310 110,305.519 110,300L110,20Z"
          style="stroke:black;stroke-width:10px;"/>
    </g>
  <g transform="matrix(1,0,0,1,10.6155,10.6155)">
        <circle cx="60" cy="60" r="40" style="fill:rgb(128,128,128);"/>
    </g>
  <g transform="matrix(1,0,0,1,10.6155,10.6155)">
        <circle cx="60" cy="160" r="40" style="fill:rgb(255,255,0);"/>
    </g>
  <g transform="matrix(1,0,0,1,10.6155,10.6155)">
        <circle cx="60" cy="260" r="40" style="fill:rgb(128,128,128);"/>
    </g>
</svg>
